# xmcd CD database file
#
# Track frame offsets:
#	182
#	18230
#	36305
#	51995
#	67872
#	84717
#	94672
#	111142
#	129107
#	145647
#	158925
#	173577
#
# Disc length: 2498 seconds
#
# Revision: 3
# Processed by: cddbd v1.4PL0 Copyright (c) Steve Scherf et al.
# Submitted via: CDex 1.40Beta9
#
DISCID=9109c00c
DTITLE=Lucas e Luan - Amor Pirata
DYEAR=2002
DGENRE=Country
TTITLE0=o amor fala mais alto
TTITLE1=amor pirata
TTITLE2=dona felicidade
TTITLE3=você gosta de brincar com fogo
TTITLE4=suspeitas demais
TTITLE5=volta prá mim
TTITLE6=horizonte azul 
TTITLE7=salário
TTITLE8=bye bye solidão
TTITLE9=você me ensinou a viver
TTITLE10=jeito atrevido
TTITLE11=cartas na manga
EXTD=YEAR: 2002 ID3G: 2
EXTT0=
EXTT1=
EXTT2=
EXTT3=
EXTT4=
EXTT5=
EXTT6=
EXTT7=
EXTT8=
EXTT9=
EXTT10=
EXTT11=
PLAYORDER=
